<svg width="100" height="100" viewBox="0 0 100 100" fill="none" xmlns="http://www.w3.org/2000/svg">
<path d="M61.4463 8.64722C64.6764 1.43899 73.1994 -1.92786 80.4834 1.12769C94.1439 6.85818 90.7149 26.8376 75.8223 28.2869L72.6133 28.5984C69.5676 28.8948 66.8568 30.0258 64.6504 31.7117L92.9561 48.0164C99.852 51.9885 102.062 60.7032 97.8916 67.4812C90.1361 80.0866 70.4018 74.6978 70.8193 60.0886L70.9355 56.0505C71.1515 48.4878 65.7977 42.4219 58.8887 40.9041C58.3312 43.7109 58.5799 46.7135 59.832 49.5906L69.6709 72.198C76.79 88.5561 59.6994 105.358 43.0469 98.3728C32.9087 94.1199 28.3344 82.5395 32.8301 72.5066L46.3047 42.4353L25.3447 48.0642C7.82222 52.7691 -6.39602 34.3999 2.97656 19.1658C8.74175 9.79546 21.1433 6.65101 30.6768 12.1423L53.8877 25.5125L61.4463 8.64722Z" fill="url(#paint0_linear_1879_473)"/>
<defs>
<linearGradient id="paint0_linear_1879_473" x1="100.128" y1="4.85288" x2="8.13964" y2="49.997" gradientUnits="userSpaceOnUse">
<stop stop-color="#FFB800"/>
<stop offset="0.5224" stop-color="#F6DAAF"/>
<stop offset="1" stop-color="#FF932F"/>
</linearGradient>
</defs>
</svg>
