<svg width="124" height="33" viewBox="0 0 124 33" fill="none" xmlns="http://www.w3.org/2000/svg">
<path d="M41.4716 13.5527C41.4186 13.0565 41.1951 12.6702 40.8011 12.3936C40.411 12.1171 39.9034 11.9789 39.2784 11.9789C38.839 11.9789 38.4621 12.0452 38.1477 12.1777C37.8333 12.3103 37.5928 12.4902 37.4261 12.7175C37.2595 12.9448 37.1742 13.2042 37.1705 13.4959C37.1705 13.7383 37.2254 13.9486 37.3352 14.1266C37.4489 14.3046 37.6023 14.4561 37.7955 14.5811C37.9886 14.7024 38.2027 14.8046 38.4375 14.888C38.6723 14.9713 38.9091 15.0414 39.1477 15.0982L40.2386 15.3709C40.678 15.4732 41.1004 15.6114 41.5057 15.7857C41.9148 15.9599 42.2803 16.1796 42.6023 16.4448C42.928 16.7099 43.1856 17.03 43.375 17.405C43.5644 17.78 43.6591 18.2194 43.6591 18.7232C43.6591 19.405 43.4848 20.0054 43.1364 20.5243C42.7879 21.0395 42.2841 21.4429 41.625 21.7346C40.9697 22.0224 40.1761 22.1664 39.2443 22.1664C38.339 22.1664 37.553 22.0262 36.8864 21.7459C36.2235 21.4656 35.7045 21.0565 35.3295 20.5186C34.9583 19.9808 34.7576 19.3255 34.7273 18.5527H36.8011C36.8314 18.958 36.9564 19.2952 37.1761 19.5641C37.3958 19.833 37.6818 20.0338 38.0341 20.1664C38.3902 20.2989 38.7879 20.3652 39.2273 20.3652C39.6856 20.3652 40.0871 20.2971 40.4318 20.1607C40.7803 20.0205 41.053 19.8274 41.25 19.5811C41.447 19.3311 41.5473 19.0395 41.5511 18.7061C41.5473 18.4031 41.4583 18.1531 41.2841 17.9561C41.1098 17.7554 40.8655 17.5887 40.5511 17.4561C40.2405 17.3198 39.8769 17.1986 39.4602 17.0925L38.1364 16.7516C37.178 16.5054 36.4205 16.1323 35.8636 15.6323C35.3106 15.1285 35.0341 14.4599 35.0341 13.6266C35.0341 12.941 35.2197 12.3406 35.5909 11.8255C35.9659 11.3103 36.4754 10.9107 37.1193 10.6266C37.7633 10.3387 38.4924 10.1948 39.3068 10.1948C40.1326 10.1948 40.8561 10.3387 41.4773 10.6266C42.1023 10.9107 42.5928 11.3065 42.9489 11.8141C43.3049 12.3179 43.4886 12.8974 43.5 13.5527H41.4716ZM49.3111 22.1607C48.4361 22.1607 47.6804 21.9789 47.044 21.6152C46.4115 21.2478 45.9247 20.7289 45.5838 20.0584C45.2429 19.3842 45.0724 18.5906 45.0724 17.6777C45.0724 16.78 45.2429 15.9921 45.5838 15.3141C45.9285 14.6323 46.4096 14.102 47.027 13.7232C47.6444 13.3406 48.3698 13.1493 49.2031 13.1493C49.741 13.1493 50.2486 13.2364 50.7259 13.4107C51.2069 13.5811 51.6312 13.8463 51.9986 14.2061C52.3698 14.566 52.6615 15.0243 52.8736 15.5811C53.0857 16.1342 53.1918 16.7933 53.1918 17.5584V18.1891H46.0384V16.8027H51.2202C51.2164 16.4088 51.1312 16.0584 50.9645 15.7516C50.7978 15.441 50.5649 15.1967 50.2656 15.0186C49.9702 14.8406 49.6255 14.7516 49.2315 14.7516C48.8111 14.7516 48.4418 14.8539 48.1236 15.0584C47.8054 15.2592 47.5573 15.5243 47.3793 15.8539C47.205 16.1796 47.116 16.5376 47.1122 16.9277V18.138C47.1122 18.6455 47.205 19.0811 47.3906 19.4448C47.5762 19.8046 47.8357 20.0811 48.169 20.2743C48.5024 20.4637 48.8925 20.5584 49.3395 20.5584C49.6387 20.5584 49.9096 20.5167 50.152 20.4334C50.3944 20.3463 50.6046 20.2194 50.7827 20.0527C50.9607 19.8861 51.0952 19.6796 51.1861 19.4334L53.1065 19.6493C52.9853 20.1569 52.7543 20.6001 52.4134 20.9789C52.0762 21.3539 51.6444 21.6455 51.1179 21.8539C50.5914 22.0584 49.9891 22.1607 49.3111 22.1607ZM58.7386 22.1607C57.8864 22.1607 57.1477 21.9732 56.5227 21.5982C55.8977 21.2232 55.4129 20.6986 55.0682 20.0243C54.7273 19.3501 54.5568 18.5622 54.5568 17.6607C54.5568 16.7592 54.7273 15.9694 55.0682 15.2914C55.4129 14.6133 55.8977 14.0868 56.5227 13.7118C57.1477 13.3368 57.8864 13.1493 58.7386 13.1493C59.5909 13.1493 60.3295 13.3368 60.9545 13.7118C61.5795 14.0868 62.0625 14.6133 62.4034 15.2914C62.7481 15.9694 62.9205 16.7592 62.9205 17.6607C62.9205 18.5622 62.7481 19.3501 62.4034 20.0243C62.0625 20.6986 61.5795 21.2232 60.9545 21.5982C60.3295 21.9732 59.5909 22.1607 58.7386 22.1607ZM58.75 20.513C59.2121 20.513 59.5985 20.3861 59.9091 20.1323C60.2197 19.8747 60.4508 19.53 60.6023 19.0982C60.7576 18.6664 60.8352 18.1853 60.8352 17.655C60.8352 17.1209 60.7576 16.638 60.6023 16.2061C60.4508 15.7705 60.2197 15.4239 59.9091 15.1664C59.5985 14.9088 59.2121 14.78 58.75 14.78C58.2765 14.78 57.8826 14.9088 57.5682 15.1664C57.2576 15.4239 57.0246 15.7705 56.8693 16.2061C56.7178 16.638 56.642 17.1209 56.642 17.655C56.642 18.1853 56.7178 18.6664 56.8693 19.0982C57.0246 19.53 57.2576 19.8747 57.5682 20.1323C57.8826 20.3861 58.2765 20.513 58.75 20.513ZM72.1648 13.263L69.0568 21.9902H66.7841L63.6761 13.263H65.8693L67.875 19.7459H67.9659L69.9773 13.263H72.1648ZM73.5881 21.9902V13.263H75.6449V21.9902H73.5881ZM74.6222 12.0243C74.2964 12.0243 74.0161 11.9164 73.7812 11.7005C73.5464 11.4808 73.429 11.2175 73.429 10.9107C73.429 10.6001 73.5464 10.3368 73.7812 10.1209C74.0161 9.90122 74.2964 9.79137 74.6222 9.79137C74.9517 9.79137 75.232 9.90122 75.4631 10.1209C75.6979 10.3368 75.8153 10.6001 75.8153 10.9107C75.8153 11.2175 75.6979 11.4808 75.4631 11.7005C75.232 11.9164 74.9517 12.0243 74.6222 12.0243ZM79.8168 10.3539V21.9902H77.7599V10.3539H79.8168ZM85.7955 22.1607C84.9205 22.1607 84.1648 21.9789 83.5284 21.6152C82.8958 21.2478 82.4091 20.7289 82.0682 20.0584C81.7273 19.3842 81.5568 18.5906 81.5568 17.6777C81.5568 16.78 81.7273 15.9921 82.0682 15.3141C82.4129 14.6323 82.8939 14.102 83.5114 13.7232C84.1288 13.3406 84.8542 13.1493 85.6875 13.1493C86.2254 13.1493 86.733 13.2364 87.2102 13.4107C87.6913 13.5811 88.1155 13.8463 88.483 14.2061C88.8542 14.566 89.1458 15.0243 89.358 15.5811C89.5701 16.1342 89.6761 16.7933 89.6761 17.5584V18.1891H82.5227V16.8027H87.7045C87.7008 16.4088 87.6155 16.0584 87.4489 15.7516C87.2822 15.441 87.0492 15.1967 86.75 15.0186C86.4545 14.8406 86.1098 14.7516 85.7159 14.7516C85.2955 14.7516 84.9261 14.8539 84.608 15.0584C84.2898 15.2592 84.0417 15.5243 83.8636 15.8539C83.6894 16.1796 83.6004 16.5376 83.5966 16.9277V18.138C83.5966 18.6455 83.6894 19.0811 83.875 19.4448C84.0606 19.8046 84.3201 20.0811 84.6534 20.2743C84.9867 20.4637 85.3769 20.5584 85.8239 20.5584C86.1231 20.5584 86.3939 20.5167 86.6364 20.4334C86.8788 20.3463 87.089 20.2194 87.267 20.0527C87.4451 19.8861 87.5795 19.6796 87.6705 19.4334L89.5909 19.6493C89.4697 20.1569 89.2386 20.6001 88.8977 20.9789C88.5606 21.3539 88.1288 21.6455 87.6023 21.8539C87.0758 22.0584 86.4735 22.1607 85.7955 22.1607ZM95.223 22.1607C94.3707 22.1607 93.6321 21.9732 93.0071 21.5982C92.3821 21.2232 91.8973 20.6986 91.5526 20.0243C91.2116 19.3501 91.0412 18.5622 91.0412 17.6607C91.0412 16.7592 91.2116 15.9694 91.5526 15.2914C91.8973 14.6133 92.3821 14.0868 93.0071 13.7118C93.6321 13.3368 94.3707 13.1493 95.223 13.1493C96.0753 13.1493 96.8139 13.3368 97.4389 13.7118C98.0639 14.0868 98.5469 14.6133 98.8878 15.2914C99.2325 15.9694 99.4048 16.7592 99.4048 17.6607C99.4048 18.5622 99.2325 19.3501 98.8878 20.0243C98.5469 20.6986 98.0639 21.2232 97.4389 21.5982C96.8139 21.9732 96.0753 22.1607 95.223 22.1607ZM95.2344 20.513C95.6965 20.513 96.0829 20.3861 96.3935 20.1323C96.7041 19.8747 96.9351 19.53 97.0866 19.0982C97.242 18.6664 97.3196 18.1853 97.3196 17.655C97.3196 17.1209 97.242 16.638 97.0866 16.2061C96.9351 15.7705 96.7041 15.4239 96.3935 15.1664C96.0829 14.9088 95.6965 14.78 95.2344 14.78C94.7609 14.78 94.367 14.9088 94.0526 15.1664C93.742 15.4239 93.509 15.7705 93.3537 16.2061C93.2022 16.638 93.1264 17.1209 93.1264 17.655C93.1264 18.1853 93.2022 18.6664 93.3537 19.0982C93.509 19.53 93.742 19.8747 94.0526 20.1323C94.367 20.3861 94.7609 20.513 95.2344 20.513ZM102.418 22.1152C102.073 22.1152 101.777 21.994 101.531 21.7516C101.285 21.5092 101.164 21.2137 101.168 20.8652C101.164 20.5243 101.285 20.2327 101.531 19.9902C101.777 19.7478 102.073 19.6266 102.418 19.6266C102.751 19.6266 103.041 19.7478 103.287 19.9902C103.537 20.2327 103.664 20.5243 103.668 20.8652C103.664 21.0963 103.603 21.3065 103.486 21.4959C103.372 21.6853 103.221 21.8368 103.031 21.9505C102.846 22.0603 102.641 22.1152 102.418 22.1152ZM105.791 25.263V13.263H107.814V14.7061H107.933C108.039 14.494 108.189 14.2686 108.382 14.03C108.575 13.7876 108.837 13.5811 109.166 13.4107C109.496 13.2364 109.916 13.1493 110.428 13.1493C111.102 13.1493 111.71 13.3217 112.251 13.6664C112.797 14.0073 113.229 14.513 113.547 15.1834C113.869 15.8501 114.03 16.6683 114.03 17.638C114.03 18.5963 113.873 19.4107 113.558 20.0811C113.244 20.7516 112.816 21.263 112.274 21.6152C111.732 21.9675 111.119 22.1436 110.433 22.1436C109.933 22.1436 109.518 22.0603 109.189 21.8936C108.859 21.727 108.594 21.5262 108.393 21.2914C108.196 21.0527 108.043 20.8274 107.933 20.6152H107.848V25.263H105.791ZM107.808 17.6266C107.808 18.191 107.888 18.6853 108.047 19.1096C108.21 19.5338 108.443 19.8652 108.746 20.1039C109.053 20.3387 109.424 20.4561 109.859 20.4561C110.314 20.4561 110.695 20.3349 111.001 20.0925C111.308 19.8463 111.539 19.5111 111.695 19.0868C111.854 18.6588 111.933 18.1721 111.933 17.6266C111.933 17.0849 111.856 16.6039 111.7 16.1834C111.545 15.763 111.314 15.4334 111.007 15.1948C110.7 14.9561 110.318 14.8368 109.859 14.8368C109.42 14.8368 109.047 14.9524 108.74 15.1834C108.433 15.4145 108.2 15.7383 108.041 16.155C107.886 16.5717 107.808 17.0622 107.808 17.6266ZM117.848 10.3539V21.9902H115.791V10.3539H117.848Z" fill="white"/>
<path fill-rule="evenodd" clip-rule="evenodd" d="M25.1207 5.27219C23.2998 4.50833 21.1691 5.34991 20.3616 7.15192L18.4723 11.3681L12.6693 8.0257C10.286 6.65293 7.18546 7.43908 5.74416 9.78163C3.40098 13.59 6.95553 18.1819 11.3362 17.0057L16.5766 15.5986L13.208 23.1159C12.0841 25.624 13.2276 28.5192 15.7621 29.5824C19.9252 31.3287 24.1978 27.1281 22.418 23.0387L19.9584 17.3874C19.6453 16.668 19.5829 15.9172 19.7224 15.2154C21.4497 15.5949 22.788 17.1116 22.7339 19.0023L22.7051 20.0118C22.6007 23.664 27.5342 25.011 29.4731 21.8597C30.5156 20.1653 29.9632 17.9867 28.2393 16.9937L21.1628 12.9178C21.7144 12.4963 22.3921 12.2137 23.1536 12.1396L23.9554 12.0616C27.6785 11.6994 28.5358 6.70477 25.1207 5.27219Z" fill="white"/>
</svg>
